# xmcd
#
# Track frame offsets: 
#        150
#        26680
#        45181
#        65243
#        81031
#        95264
#        113042
#        131578
#        148761
#        159066
#        172317
#        184762
#        193867
#        210423
#        220901
#
# Disc length: 3219 seconds
#
# Revision: 0
# Processed by: cddbd v1.5.1PL0 Copyright (c) Steve Scherf et al.
# Submitted via: ExactAudioCopy v0.95a3
#
DISCID=d20c910f
DTITLE=Treves Blues Band - Bluesfriends
DYEAR=2004
DGENRE=Blues
TTITLE0=Windy City Blues
TTITLE1=Amer A.C.
TTITLE2=I'm In The Mood
TTITLE3=On The Prowl Again
TTITLE4=Wastin' My Time With You
TTITLE5=You Got It
TTITLE6=Ever Since I Lost You
TTITLE7=I Kinda Like It
TTITLE8=Stand Up And Rise
TTITLE9=Traintime Blues
TTITLE10=Walkin' Blues
TTITLE11=Fuorigiri
TTITLE12=You Can Have My Husband
TTITLE13=Dreamin'
TTITLE14=Mear Mistreater
EXTD=
EXTT0=
EXTT1=
EXTT2=
EXTT3=
EXTT4=
EXTT5=
EXTT6=
EXTT7=
EXTT8=
EXTT9=
EXTT10=
EXTT11=
EXTT12=
EXTT13=
EXTT14=
PLAYORDER=
